<svg width="53" height="53" viewBox="0 0 53 53" fill="none" xmlns="http://www.w3.org/2000/svg">
<g id="bx:bx-search">
<path id="Vector" d="M22.0834 39.7498C26.0032 39.749 29.8099 38.4368 32.8976 36.0222L42.6055 45.73L45.728 42.6074L36.0202 32.8996C38.4361 29.8116 39.7491 26.0039 39.7501 22.0832C39.7501 12.3422 31.8244 4.4165 22.0834 4.4165C12.3425 4.4165 4.41675 12.3422 4.41675 22.0832C4.41675 31.8241 12.3425 39.7498 22.0834 39.7498ZM22.0834 8.83317C29.3908 8.83317 35.3334 14.7758 35.3334 22.0832C35.3334 29.3905 29.3908 35.3332 22.0834 35.3332C14.776 35.3332 8.83342 29.3905 8.83342 22.0832C8.83342 14.7758 14.776 8.83317 22.0834 8.83317Z" fill="white"/>
</g>
</svg>
